<?xml version="1.0" standalone="no"?>
<!DOCTYPE svg PUBLIC "-//W3C//DTD SVG 1.1//EN" "http://www.w3.org/Graphics/SVG/1.1/DTD/svg11.dtd" >
<svg xmlns="http://www.w3.org/2000/svg">
<metadata>
Created by FontForge 20120731 at Fri Dec  9 14:53:08 2016
 By admin
</metadata>
<defs>
<font id="iconfont" horiz-adv-x="1024" >
  <font-face 
    font-family="iconfont"
    font-weight="500"
    font-stretch="normal"
    units-per-em="1024"
    panose-1="2 0 6 3 0 0 0 0 0 0"
    ascent="896"
    descent="-128"
    x-height="792"
    bbox="0 -212 1095 980"
    underline-thickness="0"
    underline-position="0"
    unicode-range="U+0078-E841"
  />
<missing-glyph 
 />
    <glyph glyph-name=".notdef" 
 />
    <glyph glyph-name=".notdef" 
 />
    <glyph glyph-name=".null" horiz-adv-x="0" 
 />
    <glyph glyph-name="nonmarkingreturn" horiz-adv-x="341" 
 />
    <glyph glyph-name="x" unicode="x" horiz-adv-x="1001" 
d="M281 543q-27 -1 -53 -1h-83q-18 0 -36.5 -6t-32.5 -18.5t-23 -32t-9 -45.5v-76h912v41q0 16 -0.5 30t-0.5 18q0 13 -5 29t-17 29.5t-31.5 22.5t-49.5 9h-133v-97h-438v97zM955 310v-52q0 -23 0.5 -52t0.5 -58t-10.5 -47.5t-26 -30t-33 -16t-31.5 -4.5q-14 -1 -29.5 -0.5
t-29.5 0.5h-32l-45 128h-439l-44 -128h-29h-34q-20 0 -45 1q-25 0 -41 9.5t-25.5 23t-13.5 29.5t-4 30v167h911zM163 247q-12 0 -21 -8.5t-9 -21.5t9 -21.5t21 -8.5q13 0 22 8.5t9 21.5t-9 21.5t-22 8.5zM316 123q-8 -26 -14 -48q-5 -19 -10.5 -37t-7.5 -25t-3 -15t1 -14.5
t9.5 -10.5t21.5 -4h37h67h81h80h64h36q23 0 34 12t2 38q-5 13 -9.5 30.5t-9.5 34.5q-5 19 -11 39h-368zM336 498v228q0 11 2.5 23t10 21.5t20.5 15.5t34 6h188q31 0 51.5 -14.5t20.5 -52.5v-227h-327z" />
    <glyph glyph-name="add" unicode="&#xe60b;" 
d="M995 420h-362v359h-241v-359h-362v-240h362v-360h241v360h362v240z" />
    <glyph glyph-name="phone" unicode="&#xe614;" 
d="M704 172q-24 -24 -45 -59.5t-38 -52t-45 -16.5q-23 0 -46.5 9.5t-51 31.5t-45 38.5t-49.5 48.5t-48.5 49.5t-38.5 45t-31.5 51t-9.5 46.5q0 28 16.5 45t52 38t59.5 45q30 30 -6 93t-95 113t-91 50q-28 0 -76 -48t-82 -96l-34 -48q0 -95 81 -256.5t175 -255.5t255.5 -175
t256.5 -81q8 5 21 14t46 34.5t58 48.5t46 50t21 45q0 32 -50 91t-113 95t-93 6z" />
    <glyph glyph-name="icomoonfuben" unicode="&#xe605;" 
d="M32 812v-1024v1024zM64 812v-1024v1024zM96 812v-1024v1024zM128 812v-1024v1024zM160 812v-1024v1024zM192 812v-1024v1024zM224 812v-1024v1024zM256 812v-1024v1024zM288 812v-1024v1024zM320 812v-1024v1024zM352 812v-1024v1024zM384 812v-1024v1024zM416 812v-1024
v1024zM448 812v-1024v1024zM480 812v-1024v1024zM512 812v-1024v1024zM544 812v-1024v1024zM576 812v-1024v1024zM608 812v-1024v1024zM640 812v-1024v1024zM672 812v-1024v1024zM704 812v-1024v1024zM736 812v-1024v1024zM768 812v-1024v1024zM800 812v-1024v1024zM832 812
v-1024v1024zM864 812v-1024v1024zM896 812v-1024v1024zM928 812v-1024v1024zM960 812v-1024v1024zM992 812v-1024v1024zM0 780h1024h-1024zM0 748h1024h-1024zM0 716h1024h-1024zM0 684h1024h-1024zM0 652h1024h-1024zM0 620h1024h-1024zM0 588h1024h-1024zM0 556h1024
h-1024zM0 524h1024h-1024zM0 492h1024h-1024zM0 460h1024h-1024zM0 428h1024h-1024zM0 396h1024h-1024zM0 364h1024h-1024zM0 332h1024h-1024zM0 300h1024h-1024zM0 268h1024h-1024zM0 236h1024h-1024zM0 204h1024h-1024zM0 172h1024h-1024zM0 140h1024h-1024zM0 108h1024
h-1024zM0 76h1024h-1024zM0 44h1024h-1024zM0 12h1024h-1024zM0 -20h1024h-1024zM0 -52h1024h-1024zM0 -84h1024h-1024zM0 -116h1024h-1024zM0 -148h1024h-1024zM0 -180h1024h-1024zM128 -84q0 -26 19 -45t45 -19h640q26 0 45 19t19 45t-21 93t-56.5 85t-80 68t-92.5 48
q56 36 89 93t33 125v64q0 106 -75 181t-181 75t-181 -75t-75 -181v-64q0 -68 33 -125t89 -93q-48 -18 -92.5 -48t-80 -68t-56.5 -85t-21 -93z" />
    <glyph glyph-name="check" unicode="&#xe600;" 
d="M888 514q-10 9 -23 8.5t-22 -10.5l-427 -454l-233 230q-10 9 -23 9t-22.5 -9.5t-9.5 -23t10 -22.5l256 -253h1v0q1 -1 7 -4q0 -1 1 -1.5t2 -1.5q6 -2 12 -2t12 3q1 0 2 1t2 1q5 3 7 5v0v0l449 479q9 9 9 22.5t-10 22.5z" />
    <glyph glyph-name="right" unicode="&#xe601;" 
d="M761 280l1 1t1 2q7 13 4.5 28.5t-14.5 26.5l-353 334q-15 14 -34.5 13.5t-33.5 -15t-13 -34.5t15 -34l317 -299l-316 -305q-14 -13 -14.5 -33t13.5 -35q14 -14 35 -14q19 0 33 13l350 338l0.5 1t1 1t1 0.5l0.5 0.5q1 2 6 10z" />
    <glyph glyph-name="fold" unicode="&#xe602;" 
d="M887 195l-353 350l-1 0.5l-1 0.5v1q-10 9 -23 9t-22 -10l-350 -353q-10 -9 -10 -22.5t9.5 -22.5t23 -9t22.5 9l328 331l332 -330q10 -9 23 -9t22.5 9.5t9.5 23t-10 22.5z" />
    <glyph glyph-name="cancel" unicode="&#xe620;" 
d="M645 16v0q-18 0 -25 19q-8 22 22 49q34 37 43 84.5t-9 91.5q-16 40 -50 63.5t-77 25.5q-13 1 -25 1q-16 0 -28 -1v-238q0 -3 -3 -4.5t-6 1.5l-274 274q-16 15 -16 37.5t16 37.5l274 274q3 3 6 1.5t3 -4.5v-184q13 0 48 -1q95 -3 165 -56q65 -49 90 -127q27 -85 -2 -172
q-32 -93 -121 -160q-16 -12 -31 -12z" />
    <glyph glyph-name="airplane" unicode="&#xe616;" 
d="M595 435h19q25 0 25 22q0 25 -46 25h-32l-48 66h23q23 0 23 22q0 25 -33 25h-46q-81 112 -102 112q-10 0 -21 -8q-12 -8 -12 -18q0 -9 25 -48q24 -40 70 -145q47 -107 47 -129q0 -7 -9 -9t-33 -3q-117 0 -195 -17q-7 6 -34 45q-27 38 -37 46t-36 8q-13 0 -19 -4
q0 -18 41 -125q-41 -98 -41 -125q5 -4 19 -4q26 0 36 7q9 7 37 46q27 40 34 45q67 -12 146 -16q22 -2 41.5 -2h27.5t11 -1q11 -4 11 -9q0 -22 -47 -129q-45 -105 -70 -145q-25 -39 -25 -48.5t12 -17.5q11 -8 21 -8q21 0 102 112h46q33 0 33 24q0 22 -23 22h-23l48 66h32
q46 0 46 25q0 22 -25 22h-19l76 88h101q62 0 95 13.5t33 36.5q0 14 -38.5 30t-89.5 16h-101z" />
    <glyph glyph-name="manage" unicode="&#xe61b;" 
d="M38 64l455 -211v473l-455 192v-454zM179 339l179 -83v-64l-179 83v64zM531 326v-480l455 212v460zM512 749l-474 -199l474 -198l474 198z" />
    <glyph glyph-name="weibo" unicode="&#xe60f;" 
d="M800 692q-55 14 -129 -1l-1.5 -0.5l-1.5 -0.5l-1 -1q-12 -4 -20 -14.5t-8 -23.5q0 -16 11 -27.5t27 -11.5q20 2 34 8q6 0 19.5 1.5t36 -4t44.5 -14.5t46 -30t40 -49q29 -68 12 -130q-7 -19 -7 -38q0 -16 10.5 -25.5t26.5 -9.5t24.5 6t11.5 27v0q20 63 15.5 114.5
t-21 89.5t-46.5 66t-60 44.5t-63 23.5zM377 272q-32 -4 -57 -15.5t-39.5 -27t-24.5 -33.5t-13.5 -35t-4.5 -31t-1 -22.5t1 -8.5v-5.5t2 -13.5t6 -18.5t13 -19t21 -17.5q44 -25 90.5 -26t83.5 18t61 52q15 20 20 48t-2.5 57t-24.5 53.5t-51.5 37t-79.5 7.5zM337 55.5
q-22 -2.5 -37.5 9t-15.5 31.5q0 19 14.5 36t36.5 19q24 3 40 -10t16 -33q0 -19 -16 -34.5t-38 -18zM430.5 138q-7.5 -6 -15.5 -5t-12 8t-2.5 16.5t9.5 14.5q8 7 16.5 6t12.5 -8t1.5 -16.5t-10 -15.5zM819 377q10 0 17 6.5t8 16.5q1 1 1 3q14 128 -85 148q-30 6 -57 1
q-11 0 -18.5 -8t-7.5 -19t7.5 -19t18.5 -8q85 20 92 -56q2 -20 -2 -38q0 -11 7.5 -19t18.5 -8zM742 311q-16 3 -21 10t-1 13l3 5q2 3 4 7.5t6 17.5t4.5 25.5t-4.5 28.5t-17 29q-31 27 -72 23.5t-77.5 -16t-36.5 -14.5q-10 -3 -17.5 -4.5t-11.5 0t-6 3.5t-1.5 8t1 10.5
t3 14.5t3.5 16q0 17 -2.5 31.5t-12 30.5t-24.5 24.5t-44 8t-67 -14.5q-37 -13 -77 -41t-67.5 -54.5t-54.5 -58t-35.5 -43t-13.5 -18.5v0q-69 -96 -69 -197q5 -54 31 -97.5t61.5 -70t84 -45.5t92.5 -27.5t94 -12.5q81 -7 168 13t162 69t106 118q18 40 18.5 75t-11.5 57.5
t-31.5 39.5t-36 25t-30.5 11zM409 -44q-118 -6 -201 48t-83 136q0 81 82.5 139.5t201.5 64.5t201 -41.5t82 -127.5q0 -83 -83.5 -148t-199.5 -71z" />
    <glyph glyph-name="special1" unicode="&#xe61a;" 
d="M674.5 568q-43.5 0 -74 -31t-30.5 -74t30.5 -74t74 -31t74.5 31t31 74t-31 74t-74.5 31zM674.5 416q-19.5 0 -33.5 13.5t-14 33.5t14 33.5t33.5 13.5t33.5 -13.5t14 -33.5t-14 -33.5t-33.5 -13.5zM931 378v277q0 27 -19 45.5t-45 18.5h-282q-45 0 -63 -18l-413 -413
q-16 -16 -16 -38t15 -37l317 -316q15 -16 37 -16t37 16l414 414q18 17 18 67zM861 345l-396 -390l-298 299l389 395l24 2h11h262q4 0 7 -3t3 -7v-267q0 -25 -2 -29z" />
    <glyph glyph-name="ship" unicode="&#xe617;" 
d="M47 159l80 -185h718l147 185h-945zM828 37q-12 0 -21 8.5t-9 20.5t9 21t21 9t20.5 -9t8.5 -21t-8.5 -20.5t-20.5 -8.5zM717 540h81v-243h-81v243zM579 540h81v-243h-81v243zM519 276v50h-371v-137h371h338v87h-338zM225.5 230q-12.5 0 -21 8.5t-8.5 20.5t8.5 21t21 9
t21 -9t8.5 -21t-8.5 -20.5t-21 -8.5zM334.5 228q-12.5 0 -21 9t-8.5 21t8.5 20.5t21 8.5t21 -8.5t8.5 -20.5t-8.5 -21t-21 -9zM438 228q-12 0 -21 8.5t-9 21t9 21t21 8.5t20.5 -8.5t8.5 -21t-8.5 -21t-20.5 -8.5z" />
    <glyph glyph-name="close" unicode="&#xe603;" 
d="M177 -5q-6 -7 -6 -15.5t6.5 -14.5t15 -6t14.5 6l619 640q6 7 6 15.5t-6.5 14.5t-15.5 6t-15 -6zM795 -35q6 -6 15 -6t15.5 6t6.5 14.5t-6 15.5l-619 640q-6 6 -14.5 6t-15 -6t-6.5 -14.5t6 -15.5z" />
    <glyph glyph-name="comments" unicode="&#xe604;" 
d="M131 23q-32 0 -55 23.5t-23 56.5v640l-27 -27h867q32 0 55 -23.5t23 -56.5v-640l27 27h-473h-8l-6 -5l-225 -151q-9 -6 -11.5 -16.5t3.5 -20t17 -11.5t20 4l225 151l-15 -5h473h26v27v640q0 55 -38.5 94t-92.5 39h-867h-26v-26v-640q0 -56 38.5 -95t92.5 -39h137
q11 0 18.5 8t7.5 19t-7.5 19t-18.5 8h-137zM368 369.5q0 44.5 -31 75.5t-74.5 31t-74 -31t-30.5 -75.5t30.5 -75.5t74 -31t74.5 31t31 75.5zM210 369q0 22 15.5 38t37 16t37 -16t15.5 -38t-15.5 -37.5t-37 -15.5t-37 15.5t-15.5 37.5zM630 369.5q0 44.5 -30.5 75.5t-74 31
t-74.5 -31t-31 -75.5t31 -75.5t74.5 -31t74 31t30.5 75.5zM473 369q0 22 15 38t37 16t37.5 -16t15.5 -38t-15.5 -37.5t-37.5 -15.5t-37 15.5t-15 37.5zM893 369.5q0 44.5 -31 75.5t-74.5 31t-74 -31t-30.5 -75.5t30.5 -75.5t74 -31t74.5 31t31 75.5zM735 369q0 22 15.5 38
t37 16t37 -16t15.5 -38t-15.5 -37.5t-37 -15.5t-37 15.5t-15.5 37.5z" />
    <glyph glyph-name="delete" unicode="&#xe606;" 
d="M973 603q11 0 18.5 7.5t7.5 18.5t-7.5 18.5t-18.5 7.5l-941 2q-10 0 -18 -8t-8 -19t8 -18.5t18 -7.5zM180 -180v-27h27l626 7h26v26v697q0 11 -7.5 18.5t-18.5 7.5t-18.5 -7.5t-7.5 -18.5v-697l26 27l-627 -7l27 -26v709q0 11 -7.5 19t-18.5 8t-19 -8t-8 -19v-709z
M656 -35q0 -11 8 -18.5t19 -7.5t18.5 7.5t7.5 18.5v475q0 11 -7.5 18.5t-18.5 7.5t-19 -7.5t-8 -18.5v-475zM341 -35q0 -11 8 -18.5t18.5 -7.5t18.5 7.5t8 18.5v475q0 11 -8 18.5t-18.5 7.5t-18.5 -7.5t-8 -18.5v-475zM499 -35q0 -11 7.5 -18.5t18.5 -7.5t18.5 7.5t7.5 18.5
v475q0 11 -7.5 18.5t-18.5 7.5t-18.5 -7.5t-7.5 -18.5v-475zM392 695q0 11 7.5 19t18.5 8h205q11 0 18.5 -8t7.5 -19v-55h53v55q0 33 -23 56t-56 23h-205q-32 0 -55 -23t-23 -56v-48h52v48z" />
    <glyph glyph-name="edit" unicode="&#xe607;" 
d="M34 581h-25v-25v-598q0 -52 36.5 -89t88.5 -37h794h25v25v484q0 10 -7.5 17.5t-17.5 7.5t-17.5 -7.5t-7.5 -17.5v-484l25 25h-794q-31 0 -53 22.5t-22 53.5v598l-25 -25h565q10 0 17.5 7t7.5 17.5t-7.5 18t-17.5 7.5h-565zM437 218l-5 -6v-9l-4 -149l-1 -36l34 12l144 51
l7 3l4 6l387 511l16 20l-21 16l-129 97l-19 15l-15 -20zM840 694l128 -98l-4 36l-387 -511l11 8l-143 -52l33 -24l4 149l-6 -15l398 511zM891 501l29 41l-112 82l-29 -41z" />
    <glyph glyph-name="home" unicode="&#xe66c;" 
d="M458 792v-447h-442v447h442zM1008 792v-447h-442v447h442zM458 255v-447h-442v447h442zM1008 255v-447h-442v447h442z" />
    <glyph glyph-name="datetime" unicode="&#xe60a;" 
d="M512 704q-159 0 -271.5 -112.5t-112.5 -271.5t112.5 -271.5t271.5 -112.5t271.5 112.5t112.5 271.5t-112.5 271.5t-271.5 112.5zM715.5 116.5q-84.5 -84.5 -203.5 -84.5t-203.5 84.5t-84.5 203.5t84.5 203.5t203.5 84.5t203.5 -84.5t84.5 -203.5t-84.5 -203.5zM326 692
l-43 86q-74 -37 -133 -96t-96 -133l86 -43q62 124 186 186v0zM884 506l86 43q-37 74 -96 133t-133 96l-43 -86q124 -62 186 -186v0zM512 512h-64v-192q0 -15 12 -25v0l160 -128l40 50l-148 118v177v0z" />
    <glyph glyph-name="save" unicode="&#xe60c;" 
d="M571 607h86v-155h-86v155zM912 566v-678h-800v824h654zM301 408h407v244h-407v-244zM797 273h-570v-320h570v320v0z" />
    <glyph glyph-name="truck" unicode="&#xe618;" 
d="M1024 236l-128 256h-192v128q0 26 -19 45t-45 19h-576q-26 0 -45 -19t-19 -45v-512l64 -64h81q-17 -30 -17 -64q0 -53 37.5 -90.5t90.5 -37.5t90.5 37.5t37.5 90.5q0 34 -17 64h354q-17 -30 -17 -64q0 -53 37.5 -90.5t90.5 -37.5t90.5 37.5t37.5 90.5q0 34 -17 64h81v192
zM704 236v192h133l96 -192h-229z" />
    <glyph glyph-name="exit" unicode="&#xe609;" 
d="M589 402q10 0 17.5 7.5t7.5 18.5v205q0 32 -22.5 54.5t-53.5 22.5h-461q-32 0 -54.5 -22.5t-22.5 -54.5v-615q0 -28 18 -55.5t45 -38.5l264 -114q14 -6 27 -6q17 0 30 9q26 17 26 52v77h128q31 0 53.5 22.5t22.5 53.5v205q0 11 -7.5 18.5t-18 7.5t-18 -7.5t-7.5 -18.5
v-205q0 -10 -7.5 -17.5t-17.5 -7.5h-128v486q0 29 -18.5 56.5t-44.5 38.5l-197 84h388q10 0 17.5 -7.5t7.5 -17.5v-205q0 -11 7.5 -18.5t18.5 -7.5v0zM327 527q12 -5 21.5 -19.5t9.5 -28.5v-614q0 -8 -2 -9.5t-9 1.5l-264 114q-13 5 -22.5 19.5t-9.5 27.5v615q0 6 3 11z
M940 344l-154 153q-7 8 -18 8t-18.5 -7.5t-7.5 -18t8 -18.5l110 -110h-322q-11 0 -18.5 -7.5t-7.5 -18t7.5 -18t18.5 -7.5h322l-110 -110q-8 -7 -8 -18t7.5 -18t18.5 -7t18 7l154 154q7 7 7 17.5t-7 18.5v0z" />
    <glyph glyph-name="order" unicode="&#xe61c;" 
d="M512 681q-103 0 -191 -51t-139 -139t-51 -191t51 -191t139 -139t191 -51t191 51t139 139t51 191t-51 191t-139 139t-191 51zM309 541v0q54 -48 96 -91l-35 -33q-39 45 -91 94zM365 79q-14 -11 -31 -29l-34 33q21 19 21 55v186h-77v41h121v-233q40 28 97 71v0
q6 -27 11 -47q-54 -35 -108 -77zM780 465h-122v-359q0 -73 -72 -73h-98q-3 19 -8 49q53 -5 92 -5q41 0 41 41v347h-176v40v0h343v-40zM0 812v-1024h1024v1024h-1024zM512 -140q-89 0 -170.5 35t-140.5 94t-94 140.5t-35 170.5t35 170.5t94 140.5t140.5 94t170.5 35
t170.5 -35t140.5 -94t94 -140.5t35 -170.5t-35 -170.5t-94 -140.5t-140.5 -94t-170.5 -35z" />
    <glyph glyph-name="merge" unicode="&#xe834;" 
d="M768 364q-35 0 -64.5 -17.5t-46.5 -46.5h-19q-128 0 -223 106q-45 51 -76 117q45 38 45 97q0 53 -37.5 90.5t-90.5 37.5t-90.5 -37.5t-37.5 -90.5q0 -35 17.5 -64.5t46.5 -46.5v-418q-29 -17 -46.5 -46.5t-17.5 -64.5q0 -53 37.5 -90.5t90.5 -37.5t90.5 37.5t37.5 90.5
q0 35 -17.5 64.5t-46.5 46.5v230q133 -149 318 -149h19q17 -29 46.5 -46.5t64.5 -17.5q53 0 90.5 37.5t37.5 90.5t-37.5 90.5t-90.5 37.5zM256 684q27 0 45.5 -18.5t18.5 -45.5t-18.5 -45.5t-45.5 -18.5t-45.5 18.5t-18.5 45.5t18.5 45.5t45.5 18.5zM256 -84
q-27 0 -45.5 18.5t-18.5 45.5t18.5 45.5t45.5 18.5t45.5 -18.5t18.5 -45.5t-18.5 -45.5t-45.5 -18.5zM768 172q-27 0 -45.5 18.5t-18.5 45.5t18.5 45.5t45.5 18.5t45.5 -18.5t18.5 -45.5t-18.5 -45.5t-45.5 -18.5z" />
    <glyph glyph-name="qq" unicode="&#xe612;" 
d="M921 88q-9 -27 -27 -27q-4 0 -9 3q-5 4 -9 9t-9 12q-4 6 -8 13l-6 12l-2 4l-1.5 3l-0.5 1q-1 1 -2 1l-2 -2q-28 -73 -63 -106q10 -10 29 -19q19 -8 33 -19q13 -11 17 -31q-1 -1 -2 -8q-1 -6 -3 -8q-31 -47 -144 -47q-26 0 -53 5q-28 4 -46 9q-26 7 -50 15l-11 3
q-8 2 -22 2q-18 1 -19 1q-19 -22 -60.5 -31.5t-80.5 -9.5q-17 0 -33 1t-44 4q-27 4 -48 10q-20 6 -35 19q-16 13 -16 31q0 19 5 28q5 10 19 23q7 1 20 6t23 6q1 0 3 0.5t4 0.5q1 1 1 2l-1 1q-23 6 -52 50q-28 45 -34 75l-3 1q-2 0 -5 -9q-9 -20 -26 -36q-18 -16 -37 -18h-1
q-2 0 -3 3q-1 2 -2 2q-11 26 -11 48q0 131 120 222v0q-4 9 -4 25q0 9 5 23q6 13 12 21q-1 11 4 26q4 14 10 20q0 67 44 137q44 71 104 100q67 32 154 32q64 0 127 -27q23 -9 43 -22q19 -13 33 -27t27 -33q11 -17 20 -35q8 -17 15 -40t12 -42q5 -23 10 -47l1 -3
q26 -39 26 -71q0 -6 -4 -19q-4 -12 -4 -18l0.5 -1.5t1.5 -2.5t1 -2q37 -55 57 -102q21 -48 21 -99q0 -21 -9 -48z" />
    <glyph glyph-name="login" unicode="&#xe646;" horiz-adv-x="1152" 
d="M736 854v-830l252 -68l24 3v969h-40l-236 -74v0zM427 236v-280h71l2 337l-73 -57v0zM427 980v-280l74 -59l1 290h493h44v-975h56v1024h-668v0zM303 197q-6 0 -12 3q-16 7 -16 25v123h-246q-12 0 -20.5 8t-8.5 20v184q0 12 8.5 20.5t20.5 8.5h246v122q0 18 16 26t30 -4
l306 -244q11 -8 11 -22t-11 -22l-306 -242q-8 -6 -18 -6v0zM303 225v-14v14v0z" />
    <glyph glyph-name="accept" unicode="&#xe60d;" 
d="M679 576q-10 6 -21 3t-17 -13l-177 -307l-99 91q-8 9 -19.5 9t-20 -7.5t-9 -19t7.5 -20.5l127 -117q8 -8 19.5 -8.5t19.5 7.5l199 344q6 10 3 21.5t-13 16.5v0zM512 -4q-105 0 -194.5 52t-141.5 141.5t-52 194.5t52 194.5t141.5 141.5t194.5 52t194.5 -52t141.5 -141.5
t52 -194.5t-52 -194.5t-141.5 -141.5t-194.5 -52v0zM512 828q-90 0 -172.5 -35.5t-141.5 -94.5t-94.5 -141.5t-35.5 -172.5t35.5 -172.5t94.5 -141.5t141.5 -94.5t172.5 -35.5t172.5 35.5t141.5 94.5t94.5 141.5t35.5 172.5t-35.5 172.5t-94.5 141.5t-141.5 94.5
t-172.5 35.5v0z" />
    <glyph glyph-name="password" unicode="&#xe608;" 
d="M914 457q-15 0 -25.5 11t-10.5 26v183q0 91 -64.5 155t-155.5 64h-292q-91 0 -155.5 -64.5t-64.5 -154.5v-183q0 -15 -10.5 -26t-25.5 -11v0q-15 0 -26 -10.5t-11 -25.5v-476q0 -30 21.5 -51.5t51.5 -21.5h732q30 0 51.5 21.5t21.5 51.5v476q0 15 -10.5 25.5t-26.5 10.5
v0v0zM476 18q-16 0 -24.5 10.5t-5.5 25.5l25 123q-32 22 -32 61q0 30 21.5 51.5t51.5 21.5t51.5 -21.5t21.5 -51.5q0 -39 -32 -61l25 -123q3 -15 -5.5 -25.5t-24.5 -10.5h-72v0zM219 457v219q0 61 43 104t104 43h292q61 0 104 -43t43 -104v-219h-586v0z" />
    <glyph glyph-name="seach" unicode="&#xe615;" 
d="M888 38l-31 -31q-6 -6 -15.5 -6t-15.5 6l-205 205q-83 -61 -183 -61q-128 0 -218.5 90t-90.5 218t90.5 218t218 90t218 -90t90.5 -218q0 -101 -63 -185l205 -205q7 -6 7 -15t-7 -16zM437.5 679q-91.5 0 -156 -64.5t-64.5 -155.5t64.5 -155.5t156.5 -64.5q87 0 153.5 63
t66.5 157q0 91 -64.5 155.5t-156 64.5z" />
    <glyph glyph-name="diejiakuai" unicode="&#xe619;" 
d="M995 318l-435 -195q-31 -13 -49 -13t-47 13l-435 195q-15 8 -22 33t-7 49q13 -7 30.5 -15.5t28.5 -13.5t10 -5l443 -204l443 204q40 21 69 34q0 -24 -7.5 -49.5t-21.5 -32.5zM995 523l-435 -195q-31 -13 -49 -13t-47 13l-435 195q-25 13 -25 47t25 49l435 229
q29 15 49.5 15t46.5 -15l435 -229q24 -13 24 -49t-24 -47zM512 -43l443 205q40 20 69 33q0 -24 -7.5 -49.5t-21.5 -31.5l-435 -196q-31 -13 -49 -13t-47 13l-435 196q-15 8 -22 33t-7 48q13 -7 30.5 -15.5t28.5 -13.5t10 -4z" />
    <glyph glyph-name="iconstation" unicode="&#xe647;" 
d="M639 62l-128 -167l-127 167q-132 42 -215.5 154t-83.5 253q0 116 57.5 214.5t155.5 155.5t214 57t214 -57t155.5 -155.5t57.5 -214.5q0 -142 -84 -254t-216 -153zM512 302q69 0 118 49t49 118t-49 118t-118 49t-118 -49t-49 -118t49 -118t118 -49z" />
    <glyph glyph-name="yooxi" unicode="&#xe613;" 
d="M407 772q47 -8 49 -8q101 -23 166 -78q74 -62 95 -143q0 -1 3 -15q-153 12 -248 -87q-104 -108 -65 -254q-56 0 -59 1q-16 1 -44.5 6t-39.5 7q-11 1 -20 -3q-11 -5 -106 -53l-6 -1v7q20 59 29 84q5 12 -6 19q-87 63 -115 150q-1 1 -11 38v75l3 4q11 73 60 130
q76 88 201 113q3 1 43 8h71zM541 582q0 17 -11.5 29t-29 12.5t-33 -12.5t-15.5 -29q0 -14 15 -27.5t31 -14.5q19 0 31 12t12 30zM302 580q-1 35 -35 42q-15 4 -32 -6.5t-21 -24.5q-3 -13 1 -21q13 -27 45 -29q16 -1 29.5 11.5t12.5 27.5zM901 -18q-70 40 -89 50q-3 2 -11 0
q-73 -19 -123 -14q-180 19 -245 161q-27 61 -15 126t60 115q74 79 192 92q138 14 242 -73q80 -67 86 -166q3 -56 -32 -112q-30 -48 -78 -84q-11 -9 -6 -22q2 -8 21 -73h-2zM614 310q16 0 28 9.5t13 21.5q0 14 -12.5 24.5t-29.5 10.5q-13 0 -23.5 -10.5t-10.5 -23.5
t10.5 -22.5t24.5 -9.5zM803 310q16 0 27.5 10t11.5 23.5t-12.5 23t-28.5 9.5q-13 0 -23.5 -10.5t-10.5 -22.5q0 -14 11 -23.5t25 -9.5z" />
    <glyph glyph-name="service01" unicode="&#xe626;" 
d="M850 289q-9 -55 -47 -94q18 -80 38.5 -113t44.5 -38q-2 -4 -19 -10t-43.5 -9.5t-55.5 -2t-58 14t-47 36.5q-74 -92 -149 -92q-70 0 -141 82q-20 -20 -49.5 -29t-57 -8.5t-52.5 4.5t-40.5 8.5t-15.5 5.5q3 1 7.5 4.5t16.5 21.5t23 45t23 81t19 123q-15 60 -15 115
q0 73 24.5 128t66 87t90 47t101.5 15t100.5 -15t88 -47t64 -87t23.5 -128q0 -46 -10 -96q6 -52 14 -96q16 24 25 52q-10 4 -16 7q25 61 25 126q0 58 -21 114q10 5 21 7q-27 90 -114.5 148.5t-200.5 58.5v0h-0.5h-0.5h-0.5h-0.5v0q-113 0 -201 -59l-0.5 -0.5l-0.5 -0.5
q-10 -6 -19 -13l-1.5 -1.5t-1.5 -0.5q-9 -8 -16 -14q0 -1 -1.5 -2t-1.5 -2q-9 -8 -14 -13q-1 -1 -2.5 -3t-1.5 -3q-8 -9 -11 -12q-1 -2 -3 -4.5t-3 -3.5l-8 -12q-1 -1 -2 -2.5t-2 -3.5l-2 -4q-5 -9 -6 -10q-1 -2 -6 -13q0 -1 -1.5 -3.5t-1.5 -4.5q-5 -11 -8 -22q11 -2 21 -7
q-21 -56 -21 -114q0 -65 25 -126q-22 -12 -46 -12q-46 0 -78 38.5t-32 92.5q0 48 26 84.5t65 44.5q28 103 127 170.5t228 67.5h1h1q129 0 228 -67.5t127 -170.5q39 -8 65 -44.5t26 -84.5q0 -54 -32 -92.5t-77 -38.5zM752 403l-14 4q-1 1 -3 1l-14 6l-1 0.5l-1 0.5
q-8 3 -17 9q-1 0 -2.5 1l-1.5 1q-9 5 -17 11l-1 0.5l-1 0.5q-8 6 -18 15q-2 1 -5 4q-9 9 -16 17q0 1 -0.5 1t-0.5 1q-8 9 -16 22q-2 2 -4 6q-8 15 -14 27q-13 -38 -34 -67.5t-41 -43.5t-38 -22.5t-30 -10.5l-11 -1q2 2 5.5 6.5t11 21t13 34.5t8.5 47t1 60q-6 -12 -13 -25
l-4 -7q-5 -9 -10 -16q-4 -6 -5 -8q-5 -7 -12 -15q0 -1 -1.5 -3t-2.5 -3q-15 -19 -34 -38q-1 0 -5 -4l-13 -13q-3 -2 -5 -4q-8 -7 -14 -12l-4 -3l-18 -14l-1 -1q-7 -5 -15 -10q-2 -1 -5 -4q-6 -3 -11 -7q-3 -2 -5 -3q-4 -3 -9 -5q-5 -3 -5.5 -3.5t-4.5 -2.5q-9 -5 -16 -9
q15 -77 51.5 -149.5t86.5 -119t99 -46.5q68 0 136 90q-29 -6 -59 -8q-12 -25 -40 -25q-19 0 -32.5 13t-13.5 31.5t13.5 31.5t32.5 13q14 0 25.5 -8t16.5 -22q44 2 83 14q70 117 76 243v0zM620 342q29 0 51 -14.5t27 -35.5h-156q5 21 27 35.5t51 14.5zM415 342
q29 0 51.5 -14.5t26.5 -35.5h-156q5 21 27 35.5t51 14.5z" />
    <glyph glyph-name="convert" unicode="&#xe60e;" 
d="M840 563v62h-62v62h-62v62h-61v62h-62v-248h-482v-123h791v123h-62zM111 193h62v-62h61v-62h62v-62h62v-62h62v248h482v123h-791v-123z" />
    <glyph glyph-name="40" unicode="&#xe610;" 
d="M536 890q66 0 120.5 -18t88.5 -47t60 -63.5t39 -69.5t20.5 -63.5t9.5 -46.5l2 -18q21 -31 27 -63.5t0 -49.5l-5 -17q33 -54 53 -101.5t27 -80.5t6 -61t-7.5 -45.5t-16.5 -30t-18.5 -18t-15.5 -6.5q-12 -3 -26 5.5t-21 17t-7 9.5q-10 -38 -32 -58q23 -11 38.5 -24.5
t21 -24.5t7.5 -21t1 -15l-1 -5q0 -4 -1.5 -9t-10 -19t-21.5 -25t-41 -21.5t-64 -13.5t-93.5 4.5t-127.5 27.5l-29 5q-67 -25 -123.5 -36.5t-93.5 -10t-66 11.5t-44.5 21.5t-26 26.5t-12.5 21t-3 10v0q-1 2 -1.5 7t1 18.5t5.5 25.5t15.5 25t29.5 20q-16 11 -28.5 29.5
t-17.5 31.5l-4 13q-1 -1 -2 -3t-5.5 -7.5t-9 -10t-12 -10t-14.5 -8t-16 -2t-18 4.5q-14 6 -23.5 30t-9.5 61t10 78t40 87.5t77 84.5q-1 4 -2.5 9.5t-2.5 22t1 31.5t10.5 33t24.5 32v0q0 6 1 13.5t5 30t10.5 43.5t19.5 49.5t29.5 52.5t43 49t58 42t76 28t95.5 11v0v0z
M248 553q-20 -18 -30 -38t-9.5 -35.5t4 -28.5t7.5 -20l4 -7q-44 -29 -73.5 -67t-40.5 -72t-15.5 -63.5t-2.5 -47.5l2 -18q25 14 43 52q10 19 20 16t18 -11.5t8 -10.5q2 -10 6.5 -25.5t22.5 -48.5t41 -49q46 -29 5 -53l-7 -3q-3 0 -6.5 -0.5t-13.5 -3t-17 -6.5t-12.5 -12.5
t-3.5 -20.5q1 -12 22 -25t55 -20t73 -8t81 12t74 40l60 -9q55 -20 105 -27.5t83 -4.5t59 11.5t38 16t14 12.5q5 9 -15 25t-48 28q-52 23 -12 51q8 6 15 14t13.5 20.5t10 20t10.5 25.5t9 24q8 19 19 23.5t18.5 -1t9.5 -12.5q1 -6 8 -18.5t13 -23.5l6 -10q3 3 6.5 9t7.5 29.5
t0 53t-24.5 81t-58.5 110.5q2 2 3.5 6.5t4 18.5t1.5 27t-8 30.5t-20 31.5q-1 7 -2 17.5t-8 41.5t-18 59t-34 62t-53 58.5t-78.5 41.5t-107 17t-106 -16t-76 -40t-49.5 -56.5t-30.5 -60t-14.5 -57t-5.5 -39.5t-0.5 -16v0v0v0z" />
    <glyph glyph-name="41" unicode="&#xe611;" 
d="M499 532q20 0 32 12t12 31.5t-12 31.5t-32 12q-21 0 -37 -12.5t-16 -31.5t16 -31t37 -12v0zM499 532zM255 619q-21 0 -37 -12.5t-16 -31.5t16 -31t37 -12q19 0 31 12t12 31.5t-12 31.5t-31 12v0zM255 619zM1021 252q0 103 -83.5 181t-201.5 87v5q-24 111 -129 184.5
t-239 73.5q-99 0 -183 -42t-133 -114t-49 -157q0 -141 137 -241l-31 -94q-4 -10 4 -17q5 -4 11 -4q3 0 7 2l117 58l14 -3q68 -13 106 -13q9 0 26 2.5t19 4.5q32 -80 113 -131t183 -51q37 0 102 16l91 -49q3 -2 7 -2q6 0 10 4q8 6 5 16l-23 77q120 95 120 207v0v0zM398 200
q-15 -1 -30 -1q-34 0 -96 13l-19 3q-5 2 -10 -1l-84 -42l22 66q3 11 -6 17q-128 90 -128 215q0 73 43 135.5t117 99t161 36.5q118 0 210.5 -63.5t113.5 -158.5q-123 -2 -210 -77.5t-87 -182.5q0 -29 8 -59h-5v0v0zM865 73q-8 -7 -5 -17l14 -47l-59 32q-3 2 -7 2q-2 0 -3 -1
q-65 -16 -96 -16q-111 0 -189.5 66t-78.5 159.5t78.5 160t189.5 66.5q108 0 187 -67t79 -159q0 -96 -110 -179v0v0zM873 64zM612 366q-13 0 -24 -11t-11 -24t11 -24t24 -11q19 0 31.5 10.5t12.5 24t-12.5 24.5t-31.5 11v0zM612 366zM804 366q-13 0 -23.5 -11t-10.5 -24
t10.5 -24t23.5 -11q19 0 31.5 10.5t12.5 24t-12.5 24.5t-31.5 11v0zM804 366z" />
    <glyph glyph-name="splith" unicode="&#xe841;" 
d="M133 414h227v-60h-227l99 -99l-42 -43l-172 172l172 172l42 -43zM834 556l-42 -43l99 -99h-227v-60h227l-99 -99l42 -43l172 172zM482 -128h60v1024h-60v-1024z" />
    <glyph glyph-name="pdf" unicode="&#xe61d;" 
d="M836 801h-648q-38 0 -65 -27.5t-27 -65.5v-647q0 -39 27 -66t65 -27h648q38 0 65 27t27 66v647q0 38 -27 65.5t-65 27.5zM495 424q-16 -52 -47 -111q-21 -40 -23 -48l5 2q73 28 155 43q-10 7 -19 15q-42 35 -71 99v0zM795 248q-13 -14 -42 -14q-72 0 -139 34
q-119 -13 -186 -34q-1 -1 -4 -2t-5 -2q-43 -73 -76 -107.5t-61 -34.5q-12 0 -21 5l-22 15l-1 2q-5 13 -2 25q4 21 26 47.5t61 50.5q11 9 41 23q18 31 44 83q27 54 50 135v1q-11 35 -14.5 52t-3.5 43.5t8 55.5q3 14 13.5 25t22.5 11h12q17 0 28 -11q34 -34 1 -167
q-1 -1 -1.5 -3.5l-0.5 -2.5q29 -81 74 -119q20 -15 40 -27q29 4 60 4q86 0 105 -32q8 -12 6 -26q-1 -18 -13 -30v0zM776 281q-16 16 -88 16q-6 0 -11 -5q54 -23 88 -23q3 0 9 1h2q4 1 4 6q-2 3 -4 5zM352 213q-15 -8 -23 -14q-51 -48 -55 -78q33 11 78 92v0zM491 533l3 2
q1 6 3.5 19t3.5 19l1 7q7 36 -4 51l-7 2q-1 -3 -3 -5q-13 -32 3 -95v0z" />
  </font>
</defs>
</svg>
